<?xml version="1.0" encoding="UTF-8"?>
<!DOCTYPE svg PUBLIC "-//W3C//DTD SVG 1.1//EN" "http://www.w3.org/Graphics/SVG/1.1/DTD/svg11.dtd">
<svg version="1.1" xmlns="http://www.w3.org/2000/svg" xmlns:xlink="http://www.w3.org/1999/xlink" x="0px" y="0px" width="20.768" height="30.12" viewBox="0, 0, 20.768, 30.12">
  <g id="Layer 1">
    <path d="M19.875,2.167 L15.755,2.167 C15.428,1.807 14.959,1.576 14.435,1.576 L12.64,1.576 L12.64,1.272 C12.64,0.57 11.783,-0 10.729,-0 C9.674,-0 8.82,0.57 8.82,1.272 L8.82,1.576 L7.027,1.576 C6.5,1.576 6.032,1.806 5.702,2.167 L0.891,2.167 C0.397,2.167 0,2.567 0,3.059 L0,29.228 C0,29.72 0.397,30.12 0.891,30.12 L19.875,30.12 C20.368,30.12 20.768,29.721 20.768,29.228 L20.768,3.059 C20.768,2.567 20.368,2.167 19.875,2.167 z" fill="#2D2D2D"/>
    <path d="M18.982,28.337 L18.982,28.337 L18.982,28.337 L18.982,3.951 L16.122,3.951 C15.88,4.655 15.221,5.165 14.434,5.165 L7.027,5.165 C6.238,5.165 5.577,4.656 5.336,3.951 L1.782,3.951 L1.782,28.337 L18.982,28.337 z" fill="#FFFFFF"/>
    <g>
      <path d="M17.217,16.73 C17.107,16.619 16.975,16.564 16.824,16.564 L14.864,16.564 L14.864,13.991 L16.377,12.478 C16.488,12.367 16.544,12.236 16.544,12.084 C16.544,11.932 16.488,11.801 16.377,11.69 C16.267,11.579 16.135,11.524 15.984,11.524 C15.832,11.524 15.701,11.579 15.59,11.69 L14.076,13.204 L6.691,13.204 L5.178,11.69 C5.067,11.579 4.936,11.524 4.784,11.524 C4.632,11.524 4.501,11.579 4.39,11.69 C4.279,11.801 4.224,11.932 4.224,12.084 C4.224,12.236 4.279,12.367 4.39,12.478 L5.904,13.991 L5.904,16.564 L3.944,16.564 C3.792,16.564 3.661,16.619 3.55,16.73 C3.439,16.841 3.384,16.972 3.384,17.124 C3.384,17.275 3.439,17.407 3.55,17.518 C3.661,17.628 3.792,17.684 3.944,17.684 L5.904,17.684 C5.904,18.617 6.073,19.416 6.411,20.081 L4.644,22.067 C4.545,22.184 4.5,22.32 4.508,22.474 C4.517,22.629 4.577,22.758 4.688,22.864 C4.799,22.957 4.924,23.004 5.064,23.004 C5.227,23.004 5.367,22.943 5.484,22.82 L7.085,21.009 L7.216,21.131 C7.298,21.207 7.425,21.302 7.597,21.416 C7.769,21.529 7.962,21.643 8.174,21.757 C8.387,21.871 8.641,21.967 8.936,22.046 C9.23,22.125 9.526,22.164 9.824,22.164 L9.824,14.324 L10.944,14.324 L10.944,22.164 C11.224,22.164 11.507,22.126 11.792,22.05 C12.078,21.974 12.318,21.89 12.51,21.796 C12.703,21.703 12.892,21.597 13.079,21.477 C13.265,21.358 13.388,21.274 13.446,21.228 C13.505,21.181 13.548,21.143 13.578,21.114 L15.31,22.838 C15.415,22.948 15.546,23.004 15.704,23.004 C15.861,23.004 15.993,22.948 16.098,22.838 C16.208,22.727 16.264,22.595 16.264,22.444 C16.264,22.292 16.208,22.161 16.098,22.05 L14.278,20.222 C14.669,19.527 14.864,18.681 14.864,17.684 L16.824,17.684 C16.975,17.684 17.107,17.629 17.218,17.518 C17.328,17.407 17.384,17.276 17.384,17.124 C17.384,16.972 17.328,16.841 17.217,16.73 z" fill="#2D2D2D"/>
      <path d="M12.366,10.102 C11.82,9.557 11.16,9.284 10.384,9.284 C9.608,9.284 8.948,9.557 8.402,10.102 C7.857,10.648 7.584,11.308 7.584,12.084 L13.184,12.084 C13.184,11.308 12.911,10.648 12.366,10.102 z" fill="#2D2D2D"/>
    </g>
  </g>
  <defs/>
</svg>
