<?xml version="1.0" encoding="UTF-8"?>
<!DOCTYPE svg PUBLIC "-//W3C//DTD SVG 1.1//EN" "http://www.w3.org/Graphics/SVG/1.1/DTD/svg11.dtd">
<svg version="1.1" xmlns="http://www.w3.org/2000/svg" xmlns:xlink="http://www.w3.org/1999/xlink" x="0px" y="0px" width="20.768" height="30.12" viewBox="0, 0, 20.768, 30.12">
  <g id="Layer 1">
    <path d="M19.875,2.167 L15.755,2.167 C15.428,1.807 14.959,1.576 14.435,1.576 L12.64,1.576 L12.64,1.272 C12.64,0.57 11.783,-0 10.729,-0 C9.674,-0 8.82,0.57 8.82,1.272 L8.82,1.576 L7.027,1.576 C6.5,1.576 6.032,1.806 5.702,2.167 L0.891,2.167 C0.397,2.167 0,2.567 0,3.059 L0,29.228 C0,29.72 0.397,30.12 0.891,30.12 L19.875,30.12 C20.368,30.12 20.768,29.721 20.768,29.228 L20.768,3.059 C20.768,2.567 20.368,2.167 19.875,2.167 z" fill="#2D2D2D"/>
    <path d="M18.982,28.337 L18.982,28.337 L18.982,28.337 L18.982,3.951 L16.122,3.951 C15.88,4.655 15.221,5.165 14.434,5.165 L7.027,5.165 C6.238,5.165 5.577,4.656 5.336,3.951 L1.782,3.951 L1.782,28.337 L18.982,28.337 z" fill="#FFFFFF"/>
    <path d="M6.196,13.116 C6.196,13.116 6.168,12.806 6.154,12.651 C6.228,12.609 6.298,12.563 6.363,12.512 C6.48,12.579 6.712,12.714 6.712,12.714 L7.107,12.61 L7.556,11.834 L7.452,11.438 C7.452,11.438 7.153,11.265 7.004,11.179 C7,11.093 6.99,11.007 6.973,10.925 C7.092,10.824 7.328,10.621 7.328,10.621 L7.328,10.212 L6.744,9.531 L6.335,9.531 C6.335,9.531 6.141,9.697 6.044,9.781 C5.939,9.73 5.828,9.688 5.712,9.656 C5.703,9.541 5.684,9.31 5.684,9.31 L5.395,9.021 L4.501,9.094 L4.212,9.383 C4.212,9.383 4.237,9.686 4.249,9.838 C4.161,9.888 4.079,9.944 4.002,10.007 C3.876,9.949 3.624,9.834 3.624,9.834 L3.228,9.938 L2.854,10.753 L2.841,10.809 L2.959,11.149 C2.959,11.149 3.25,11.282 3.397,11.349 C3.403,11.445 3.418,11.539 3.442,11.63 C3.33,11.724 3.108,11.913 3.108,11.913 L3.108,12.322 L3.687,13.006 C3.687,13.006 4.024,13.046 4.042,13.036 C4.06,13.026 4.097,13.006 4.097,13.006 C4.097,13.006 4.308,12.827 4.414,12.737 C4.503,12.777 4.597,12.81 4.693,12.837 C4.704,12.957 4.726,13.198 4.726,13.198 L5.016,13.487 L5.908,13.405 L6.196,13.116 z M5.15,12.156 C4.652,12.156 4.249,11.752 4.249,11.254 C4.249,10.756 4.652,10.352 5.15,10.352 C5.649,10.352 6.053,10.756 6.053,11.254 C6.053,11.751 5.649,12.156 5.15,12.156 z" fill="#2D2D2D"/>
    <path d="M8.676,16.048 C8.676,16.048 8.654,15.814 8.644,15.697 C8.7,15.665 8.753,15.631 8.802,15.592 C8.89,15.643 9.065,15.745 9.065,15.745 L9.365,15.666 L9.704,15.079 L9.626,14.78 C9.626,14.78 9.4,14.649 9.287,14.585 C9.284,14.52 9.277,14.455 9.263,14.393 C9.353,14.316 9.532,14.163 9.532,14.163 L9.532,13.853 L9.09,13.339 L8.781,13.339 C8.781,13.339 8.634,13.464 8.561,13.527 C8.481,13.489 8.397,13.457 8.31,13.433 C8.302,13.346 8.289,13.171 8.289,13.171 L8.07,12.953 L7.395,13.008 L7.176,13.226 C7.176,13.226 7.195,13.456 7.204,13.57 C7.138,13.608 7.075,13.65 7.017,13.698 C6.922,13.654 6.732,13.568 6.732,13.568 L6.432,13.646 L6.15,14.263 L6.14,14.304 L6.229,14.561 C6.229,14.561 6.449,14.662 6.56,14.713 C6.564,14.786 6.576,14.856 6.594,14.925 C6.51,14.996 6.341,15.139 6.341,15.139 L6.341,15.448 L6.779,15.966 C6.779,15.966 7.034,15.996 7.048,15.989 C7.062,15.981 7.089,15.966 7.089,15.966 C7.089,15.966 7.249,15.83 7.329,15.762 C7.396,15.793 7.467,15.818 7.541,15.838 C7.549,15.929 7.566,16.11 7.566,16.11 L7.784,16.329 L8.459,16.267 L8.676,16.048 z M7.885,15.322 C7.508,15.322 7.203,15.017 7.203,14.641 C7.203,14.264 7.508,13.959 7.885,13.959 C8.262,13.959 8.567,14.264 8.567,14.641 C8.567,15.017 8.262,15.322 7.885,15.322 z" fill="#2D2D2D"/>
    <path d="M14.892,7.545 C12.029,7.545 9.167,7.545 6.303,7.545 C5.584,7.545 5.584,8.66 6.303,8.66 C9.167,8.66 12.029,8.66 14.892,8.66 C15.611,8.66 15.611,7.545 14.892,7.545 z" fill="#2D2D2D"/>
    <path d="M14.892,10.184 C12.029,10.184 13.628,10.184 10.765,10.184 C10.045,10.184 10.045,11.3 10.765,11.3 C13.628,11.3 12.029,11.3 14.892,11.3 C15.611,11.3 15.611,10.184 14.892,10.184 z" fill="#2D2D2D"/>
    <path d="M15.48,20.78 C15.478,20.637 15.467,20.496 15.442,20.359 C15.643,20.198 16.044,19.876 16.044,19.876 L16.066,19.202 L15.139,18.049 L14.465,18.027 C14.465,18.027 14.136,18.291 13.972,18.422 C13.801,18.333 13.62,18.258 13.431,18.199 C13.422,18.009 13.403,17.628 13.403,17.628 L12.941,17.136 L11.464,17.208 L10.972,17.669 C10.972,17.669 10.997,18.171 11.009,18.422 C10.862,18.499 10.723,18.588 10.592,18.686 C10.388,18.584 9.979,18.381 9.979,18.381 L9.321,18.532 L8.662,19.857 L8.637,19.947 L8.812,20.514 C8.812,20.514 9.286,20.749 9.523,20.867 C9.529,21.026 9.548,21.181 9.583,21.332 C9.394,21.481 9.017,21.782 9.017,21.782 L8.995,22.455 L9.914,23.614 C9.914,23.614 10.467,23.698 10.497,23.683 C10.528,23.667 10.588,23.636 10.588,23.636 C10.588,23.636 10.947,23.351 11.126,23.209 C11.271,23.28 11.423,23.341 11.581,23.389 C11.593,23.587 11.616,23.985 11.616,23.985 L12.078,24.477 L13.553,24.39 L14.045,23.929 C14.045,23.929 14.015,23.417 14,23.161 C14.122,23.095 14.241,23.024 14.352,22.943 C14.54,23.06 14.916,23.294 14.916,23.294 L15.574,23.143 L16.355,21.888 L16.205,21.23 C16.205,21.23 15.722,20.93 15.48,20.78 z M12.372,22.29 C11.551,22.264 10.907,21.577 10.934,20.756 C10.96,19.934 11.647,19.29 12.468,19.316 C13.29,19.343 13.934,20.03 13.908,20.852 C13.881,21.673 13.194,22.317 12.372,22.29 z" fill="#2D2D2D"/>
    <path d="M18.222,17.634 C18.222,17.634 17.702,17.31 17.441,17.149 C17.44,16.996 17.428,16.844 17.401,16.697 C17.617,16.524 18.049,16.178 18.049,16.178 L18.073,15.453 L17.076,14.212 L16.35,14.188 C16.35,14.188 15.996,14.471 15.82,14.614 C15.636,14.517 15.442,14.436 15.238,14.374 C15.228,14.168 15.208,13.758 15.208,13.758 L14.712,13.229 L13.123,13.307 L12.594,13.803 C12.594,13.803 12.62,14.342 12.632,14.611 C12.474,14.695 12.325,14.79 12.185,14.896 C11.966,14.787 11.525,14.569 11.525,14.569 L10.818,14.731 L10.108,16.155 L10.081,16.253 L10.27,16.863 C10.27,16.863 10.603,17.028 10.865,17.158 L11.16,16.882 L11.28,16.77 L11.444,16.762 L12.629,16.705 C12.836,16.033 13.466,15.552 14.203,15.576 C15.086,15.604 15.78,16.343 15.751,17.226 C15.744,17.464 15.681,17.686 15.582,17.886 L16.414,18.923 L16.517,19.052 L16.512,19.217 L16.498,19.644 C16.671,19.751 16.836,19.854 16.836,19.854 L17.544,19.693 L18.384,18.343 L18.222,17.634 z" fill="#2D2D2D"/>
    <path d="M2.97,16.05 C3.101,16.05 3.209,16.014 3.295,15.943 C3.381,15.873 3.447,15.773 3.49,15.644 C3.533,15.515 3.555,15.345 3.555,15.134 C3.555,14.956 3.541,14.814 3.515,14.71 C3.488,14.605 3.45,14.516 3.403,14.442 C3.355,14.37 3.295,14.313 3.223,14.275 C3.15,14.237 3.066,14.217 2.97,14.217 C2.839,14.217 2.731,14.252 2.645,14.322 C2.558,14.392 2.493,14.492 2.449,14.621 C2.406,14.751 2.384,14.921 2.384,15.134 C2.384,15.471 2.443,15.714 2.561,15.864 C2.66,15.987 2.796,16.05 2.97,16.05 z M2.725,14.528 C2.785,14.442 2.866,14.399 2.968,14.399 C3.07,14.399 3.156,14.447 3.225,14.544 C3.294,14.641 3.329,14.838 3.329,15.133 C3.329,15.427 3.294,15.623 3.225,15.72 C3.156,15.819 3.071,15.868 2.97,15.868 C2.869,15.868 2.784,15.819 2.715,15.721 C2.646,15.624 2.612,15.427 2.612,15.133 C2.611,14.839 2.649,14.637 2.725,14.528 z" fill="#2D2D2D"/>
    <path d="M4.271,14.457 C4.178,14.539 4.07,14.609 3.947,14.668 L3.947,14.88 C4.016,14.855 4.093,14.818 4.18,14.767 C4.266,14.716 4.335,14.665 4.388,14.615 L4.388,16.019 L4.608,16.019 L4.608,14.217 L4.466,14.217 C4.428,14.295 4.363,14.374 4.271,14.457 z" fill="#2D2D2D"/>
    <path d="M3.445,17.119 C3.398,17.046 3.338,16.99 3.265,16.952 C3.192,16.913 3.108,16.894 3.012,16.894 C2.881,16.894 2.773,16.928 2.686,16.999 C2.6,17.069 2.536,17.168 2.492,17.298 C2.449,17.427 2.426,17.598 2.426,17.81 C2.426,18.147 2.486,18.39 2.604,18.54 C2.703,18.664 2.838,18.726 3.012,18.726 C3.143,18.726 3.252,18.69 3.338,18.62 C3.423,18.549 3.489,18.449 3.532,18.32 C3.576,18.191 3.597,18.021 3.597,17.81 C3.597,17.632 3.584,17.491 3.557,17.386 C3.53,17.281 3.492,17.192 3.445,17.119 z M3.267,18.397 C3.198,18.496 3.113,18.545 3.012,18.545 C2.91,18.545 2.826,18.496 2.756,18.398 C2.687,18.301 2.654,18.104 2.654,17.81 C2.654,17.516 2.691,17.313 2.767,17.204 C2.827,17.119 2.908,17.075 3.009,17.075 C3.112,17.075 3.198,17.124 3.267,17.221 C3.336,17.318 3.371,17.514 3.371,17.81 C3.37,18.104 3.336,18.3 3.267,18.397 z" fill="#2D2D2D"/>
    <path d="M4.651,18.695 L4.651,16.893 L4.508,16.893 C4.47,16.971 4.405,17.051 4.313,17.133 C4.221,17.216 4.113,17.286 3.99,17.344 L3.99,17.557 C4.058,17.532 4.136,17.494 4.222,17.443 C4.308,17.393 4.378,17.342 4.43,17.292 L4.43,18.696 L4.651,18.696 z" fill="#2D2D2D"/>
    <path d="M5.859,18.695 L5.859,16.893 L5.717,16.893 C5.679,16.971 5.613,17.051 5.521,17.133 C5.43,17.216 5.322,17.286 5.198,17.344 L5.198,17.557 C5.266,17.532 5.344,17.494 5.43,17.443 C5.517,17.393 5.587,17.342 5.639,17.292 L5.639,18.696 L5.859,18.696 z" fill="#2D2D2D"/>
    <path d="M7.442,17.119 C7.394,17.046 7.335,16.99 7.262,16.952 C7.189,16.913 7.105,16.894 7.009,16.894 C6.878,16.894 6.769,16.928 6.683,16.999 C6.597,17.069 6.533,17.168 6.489,17.298 C6.445,17.428 6.423,17.598 6.423,17.81 C6.423,18.148 6.482,18.391 6.601,18.54 C6.699,18.664 6.835,18.726 7.009,18.726 C7.139,18.726 7.248,18.691 7.334,18.62 C7.421,18.55 7.485,18.45 7.528,18.321 C7.572,18.191 7.594,18.021 7.594,17.81 C7.594,17.633 7.58,17.491 7.553,17.387 C7.527,17.281 7.49,17.192 7.442,17.119 z M7.263,18.397 C7.194,18.496 7.11,18.545 7.009,18.545 C6.907,18.545 6.822,18.496 6.753,18.398 C6.684,18.301 6.65,18.104 6.65,17.81 C6.65,17.516 6.688,17.313 6.763,17.204 C6.824,17.119 6.904,17.075 7.006,17.075 C7.109,17.075 7.194,17.124 7.263,17.221 C7.333,17.318 7.367,17.514 7.367,17.81 C7.367,18.104 7.333,18.3 7.263,18.397 z" fill="#2D2D2D"/>
    <path d="M3.445,20.128 C3.398,20.055 3.338,19.999 3.265,19.96 C3.192,19.922 3.108,19.902 3.012,19.902 C2.881,19.902 2.773,19.937 2.686,20.007 C2.6,20.078 2.536,20.177 2.492,20.306 C2.449,20.436 2.426,20.607 2.426,20.819 C2.426,21.157 2.486,21.4 2.604,21.549 C2.703,21.673 2.838,21.735 3.012,21.735 C3.143,21.735 3.252,21.7 3.338,21.629 C3.423,21.559 3.489,21.459 3.532,21.329 C3.576,21.2 3.597,21.03 3.597,20.819 C3.597,20.642 3.584,20.5 3.557,20.395 C3.53,20.29 3.492,20.201 3.445,20.128 z M3.267,21.407 C3.198,21.505 3.113,21.554 3.012,21.554 C2.91,21.554 2.826,21.505 2.756,21.407 C2.687,21.31 2.654,21.114 2.654,20.819 C2.654,20.525 2.691,20.323 2.767,20.214 C2.827,20.128 2.908,20.085 3.009,20.085 C3.112,20.085 3.198,20.133 3.267,20.23 C3.336,20.327 3.371,20.524 3.371,20.819 C3.37,21.113 3.336,21.309 3.267,21.407 z" fill="#2D2D2D"/>
    <path d="M4.84,20.128 C4.792,20.055 4.732,19.999 4.66,19.96 C4.587,19.922 4.503,19.902 4.406,19.902 C4.276,19.902 4.167,19.937 4.081,20.007 C3.995,20.078 3.93,20.177 3.886,20.306 C3.842,20.436 3.82,20.606 3.82,20.819 C3.82,21.156 3.879,21.399 3.997,21.548 C4.096,21.672 4.232,21.735 4.405,21.735 C4.536,21.735 4.645,21.7 4.731,21.629 C4.817,21.558 4.882,21.458 4.925,21.329 C4.969,21.2 4.991,21.03 4.991,20.819 C4.991,20.641 4.977,20.499 4.95,20.395 C4.924,20.29 4.887,20.201 4.84,20.128 z M4.661,21.407 C4.592,21.505 4.507,21.554 4.406,21.554 C4.305,21.554 4.22,21.505 4.151,21.407 C4.082,21.31 4.048,21.114 4.048,20.819 C4.048,20.525 4.085,20.323 4.161,20.214 C4.222,20.128 4.303,20.085 4.404,20.085 C4.507,20.085 4.593,20.133 4.662,20.23 C4.731,20.327 4.765,20.524 4.765,20.819 C4.765,21.113 4.73,21.309 4.661,21.407 z" fill="#2D2D2D"/>
    <path d="M6.233,20.128 C6.186,20.055 6.126,19.999 6.054,19.96 C5.98,19.922 5.896,19.902 5.801,19.902 C5.67,19.902 5.562,19.937 5.476,20.007 C5.389,20.078 5.324,20.177 5.28,20.306 C5.237,20.436 5.215,20.606 5.215,20.819 C5.215,21.156 5.274,21.399 5.392,21.548 C5.491,21.672 5.626,21.735 5.8,21.735 C5.931,21.735 6.04,21.7 6.125,21.629 C6.212,21.558 6.276,21.458 6.32,21.329 C6.363,21.2 6.385,21.03 6.385,20.819 C6.385,20.641 6.371,20.499 6.344,20.395 C6.319,20.29 6.281,20.201 6.233,20.128 z M6.055,21.407 C5.987,21.505 5.901,21.554 5.801,21.554 C5.699,21.554 5.614,21.505 5.545,21.407 C5.476,21.31 5.442,21.114 5.442,20.819 C5.442,20.525 5.48,20.323 5.555,20.214 C5.616,20.128 5.697,20.085 5.798,20.085 C5.901,20.085 5.987,20.133 6.056,20.23 C6.125,20.327 6.16,20.524 6.16,20.819 C6.159,21.113 6.125,21.309 6.055,21.407 z" fill="#2D2D2D"/>
    <path d="M7.44,21.704 L7.44,19.902 L7.298,19.902 C7.26,19.98 7.194,20.06 7.102,20.142 C7.01,20.225 6.902,20.295 6.779,20.353 L6.779,20.566 C6.848,20.541 6.925,20.503 7.011,20.452 C7.097,20.401 7.167,20.351 7.219,20.301 L7.219,21.705 L7.44,21.705 z" fill="#2D2D2D"/>
    <path d="M8.63,23.063 C8.538,23.146 8.43,23.216 8.306,23.274 L8.306,23.487 C8.375,23.462 8.453,23.424 8.539,23.374 C8.625,23.323 8.694,23.273 8.747,23.222 L8.747,24.626 L8.968,24.626 L8.968,22.823 L8.825,22.823 C8.787,22.901 8.722,22.981 8.63,23.063 z" fill="#2D2D2D"/>
    <path d="M3.445,23.137 C3.398,23.064 3.338,23.008 3.265,22.969 C3.192,22.93 3.108,22.911 3.012,22.911 C2.881,22.911 2.773,22.946 2.686,23.016 C2.6,23.086 2.536,23.186 2.492,23.315 C2.449,23.445 2.426,23.616 2.426,23.828 C2.426,24.165 2.486,24.408 2.604,24.558 C2.703,24.681 2.838,24.743 3.012,24.743 C3.143,24.743 3.252,24.709 3.338,24.638 C3.423,24.568 3.489,24.467 3.532,24.337 C3.576,24.208 3.597,24.038 3.597,23.828 C3.597,23.65 3.584,23.508 3.557,23.404 C3.53,23.298 3.492,23.21 3.445,23.137 z M3.267,24.416 C3.198,24.514 3.113,24.563 3.012,24.563 C2.91,24.563 2.826,24.514 2.756,24.416 C2.687,24.318 2.654,24.123 2.654,23.828 C2.654,23.534 2.691,23.332 2.767,23.222 C2.827,23.136 2.908,23.094 3.009,23.094 C3.112,23.094 3.198,23.142 3.267,23.24 C3.336,23.336 3.371,23.533 3.371,23.828 C3.37,24.122 3.336,24.318 3.267,24.416 z" fill="#2D2D2D"/>
    <path d="M4.313,23.151 C4.221,23.233 4.113,23.303 3.99,23.362 L3.99,23.575 C4.058,23.549 4.136,23.512 4.222,23.461 C4.308,23.411 4.378,23.36 4.43,23.31 L4.43,24.713 L4.651,24.713 L4.651,22.911 L4.508,22.911 C4.47,22.989 4.405,23.068 4.313,23.151 z" fill="#2D2D2D"/>
    <path d="M5.521,23.151 C5.429,23.233 5.322,23.303 5.198,23.362 L5.198,23.575 C5.266,23.549 5.344,23.512 5.43,23.461 C5.517,23.411 5.587,23.36 5.639,23.31 L5.639,24.713 L5.859,24.713 L5.859,22.911 L5.717,22.911 C5.679,22.989 5.613,23.068 5.521,23.151 z" fill="#2D2D2D"/>
    <path d="M7.442,23.137 C7.394,23.064 7.335,23.008 7.262,22.969 C7.189,22.93 7.105,22.911 7.009,22.911 C6.878,22.911 6.769,22.946 6.683,23.016 C6.597,23.086 6.533,23.186 6.489,23.315 C6.445,23.445 6.423,23.616 6.423,23.828 C6.423,24.165 6.482,24.408 6.601,24.558 C6.699,24.681 6.835,24.743 7.009,24.743 C7.139,24.743 7.248,24.709 7.334,24.638 C7.421,24.568 7.485,24.467 7.528,24.337 C7.572,24.208 7.594,24.038 7.594,23.828 C7.594,23.65 7.58,23.508 7.553,23.404 C7.527,23.298 7.49,23.21 7.442,23.137 z M7.263,24.416 C7.194,24.514 7.11,24.563 7.009,24.563 C6.907,24.563 6.822,24.514 6.753,24.416 C6.684,24.318 6.65,24.123 6.65,23.828 C6.65,23.534 6.688,23.332 6.763,23.222 C6.824,23.136 6.904,23.094 7.006,23.094 C7.109,23.094 7.194,23.142 7.263,23.24 C7.333,23.336 7.367,23.533 7.367,23.828 C7.367,24.122 7.333,24.318 7.263,24.416 z" fill="#2D2D2D"/>
  </g>
  <defs/>
</svg>
