<?xml version="1.0" encoding="UTF-8"?>
<!DOCTYPE svg PUBLIC "-//W3C//DTD SVG 1.1//EN" "http://www.w3.org/Graphics/SVG/1.1/DTD/svg11.dtd">
<svg version="1.1" xmlns="http://www.w3.org/2000/svg" xmlns:xlink="http://www.w3.org/1999/xlink" x="0px" y="0px" width="20.768" height="30.12" viewBox="0, 0, 20.768, 30.12">
  <g id="Layer 1">
    <path d="M19.875,2.167 L15.755,2.167 C15.428,1.807 14.959,1.576 14.435,1.576 L12.64,1.576 L12.64,1.272 C12.64,0.57 11.783,-0 10.729,-0 C9.674,-0 8.82,0.57 8.82,1.272 L8.82,1.576 L7.027,1.576 C6.5,1.576 6.032,1.806 5.702,2.167 L0.891,2.167 C0.397,2.167 0,2.567 0,3.059 L0,29.228 C0,29.72 0.397,30.12 0.891,30.12 L19.875,30.12 C20.368,30.12 20.768,29.721 20.768,29.228 L20.768,3.059 C20.768,2.567 20.368,2.167 19.875,2.167 z" fill="#2D2D2D"/>
    <path d="M18.982,28.337 L18.982,28.337 L18.982,28.337 L18.982,3.951 L16.122,3.951 C15.88,4.655 15.221,5.165 14.434,5.165 L7.027,5.165 C6.238,5.165 5.577,4.656 5.336,3.951 L1.782,3.951 L1.782,28.337 L18.982,28.337 z" fill="#FFFFFF"/>
    <g>
      <path d="M6.108,16.203 L10.383,12.421 L14.657,16.203 C14.937,16.483 15.394,16.483 15.672,16.203 C15.954,15.924 15.954,15.47 15.675,15.189 L10.901,10.967 C10.758,10.825 10.571,10.756 10.384,10.759 C10.196,10.756 10.009,10.825 9.866,10.967 L5.094,15.189 C4.814,15.469 4.814,15.924 5.094,16.203 C5.373,16.483 5.829,16.483 6.108,16.203 z" fill="#2D2D2D"/>
      <path d="M10.901,16.084 C10.758,15.941 10.571,15.872 10.384,15.875 C10.196,15.872 10.009,15.941 9.866,16.084 L5.094,20.304 C4.814,20.585 4.814,21.04 5.094,21.318 C5.373,21.599 5.829,21.599 6.108,21.318 L10.383,17.539 L14.657,21.318 C14.937,21.599 15.394,21.599 15.672,21.318 C15.951,21.04 15.951,20.585 15.672,20.304 L10.901,16.084 z" fill="#2D2D2D"/>
    </g>
  </g>
  <defs/>
</svg>
