<?xml version="1.0" encoding="UTF-8"?>
<!DOCTYPE svg PUBLIC "-//W3C//DTD SVG 1.1//EN" "http://www.w3.org/Graphics/SVG/1.1/DTD/svg11.dtd">
<svg version="1.1" xmlns="http://www.w3.org/2000/svg" xmlns:xlink="http://www.w3.org/1999/xlink" x="0px" y="0px" width="20.768" height="30.12" viewBox="0, 0, 20.768, 30.12">
  <g id="Layer 1">
    <path d="M19.875,2.167 L15.755,2.167 C15.428,1.807 14.959,1.576 14.435,1.576 L12.64,1.576 L12.64,1.272 C12.64,0.57 11.783,-0 10.729,-0 C9.674,-0 8.82,0.57 8.82,1.272 L8.82,1.576 L7.027,1.576 C6.5,1.576 6.032,1.806 5.702,2.167 L0.891,2.167 C0.397,2.167 0,2.567 0,3.059 L0,29.228 C0,29.72 0.397,30.12 0.891,30.12 L19.875,30.12 C20.368,30.12 20.768,29.721 20.768,29.228 L20.768,3.059 C20.768,2.567 20.368,2.167 19.875,2.167 z" fill="#2D2D2D"/>
    <path d="M18.982,28.337 L18.982,28.337 L18.982,28.337 L18.982,3.951 L16.122,3.951 C15.88,4.655 15.221,5.165 14.434,5.165 L7.027,5.165 C6.238,5.165 5.577,4.656 5.336,3.951 L1.782,3.951 L1.782,28.337 L18.982,28.337 z" fill="#FFFFFF"/>
    <path d="M4.19,9.406 L4.19,10 L17.266,10 L17.266,9.406 L4.19,9.406 z" fill="#2D2D2D"/>
    <path d="M4.19,11.486 L4.19,12.081 L17.266,12.081 L17.266,11.486 L4.19,11.486 z" fill="#2D2D2D"/>
    <path d="M4.19,13.752 L4.19,14.347 L17.266,14.347 L17.266,13.752 L4.19,13.752 z" fill="#2D2D2D"/>
    <path d="M4.19,15.832 L4.19,16.426 L17.266,16.426 L17.266,15.832 L4.19,15.832 z" fill="#2D2D2D"/>
    <path d="M15.276,19.964 C16.247,19.209 15.664,17.643 14.505,18.545 C12.64,19.998 11.119,21.793 9.581,23.571 C8.924,22.872 8.324,22.132 7.94,21.239 C7.502,20.222 5.844,21.702 6.238,22.619 C6.776,23.863 7.734,24.875 8.677,25.828 C9.062,26.22 9.723,25.778 9.989,25.475 C11.676,23.559 13.249,21.542 15.276,19.964 z" fill="#2D2D2D"/>
  </g>
  <defs/>
</svg>
